# xmcd
#
# Track frame offsets:
#	150
#	19047
#	40020
#	61515
#	75837
#	96182
#	120637
#	154792
#	173282
#	188772
#	212772
#	236620
#	255227
#	268230
#
# Disc length: 3838 seconds
#
# Revision: 0
# Processed by: cddbd v1.4PL0 Copyright (c) Steve Scherf et al.
# Submitted via: dBpowerAMP V4.0
#
DISCID=9e0efc0e
DTITLE=Nervous Fellas - Nervous Breakdown
DYEAR=2003
DGENRE=Swing
TTITLE0=Ain't that fine
TTITLE1=The wolf pack
TTITLE2=Rock little Baby
TTITLE3=Reed rocker
TTITLE4=Just to be with you
TTITLE5=Surotogo
TTITLE6=Things ain't right
TTITLE7=Watcha Doin
TTITLE8=Snakes
TTITLE9=Nervous breakdown
TTITLE10=She likes to rock
TTITLE11=Crazy mixed up world
TTITLE12=The rooster
TTITLE13=Shaking all over
EXTD=
EXTT0=
EXTT1=
EXTT2=
EXTT3=
EXTT4=
EXTT5=
EXTT6=
EXTT7=
EXTT8=
EXTT9=
EXTT10=
EXTT11=
EXTT12=
EXTT13=
PLAYORDER=
